<svg width="22px" height="22px" viewBox="0 0 22 22" fill="none" xmlns="http://www.w3.org/2000/svg">
<path d="M20.2889 22L12.5889 14.3C11.9778 14.7889 11.275 15.1759 10.4806 15.4611C9.68611 15.7463 8.84074 15.8889 7.94444 15.8889C5.72407 15.8889 3.84511 15.1201 2.30756 13.5826C0.769185 12.0442 0 10.1648 0 7.94444C0 5.72407 0.769185 3.8447 2.30756 2.30633C3.84511 0.768778 5.72407 0 7.94444 0C10.1648 0 12.0442 0.768778 13.5826 2.30633C15.1201 3.8447 15.8889 5.72407 15.8889 7.94444C15.8889 8.84074 15.7463 9.68611 15.4611 10.4806C15.1759 11.275 14.7889 11.9778 14.3 12.5889L22 20.2889L20.2889 22ZM7.94444 13.4444C9.47222 13.4444 10.771 12.9099 11.8409 11.8409C12.9099 10.771 13.4444 9.47222 13.4444 7.94444C13.4444 6.41667 12.9099 5.11785 11.8409 4.048C10.771 2.97896 9.47222 2.44444 7.94444 2.44444C6.41667 2.44444 5.11785 2.97896 4.048 4.048C2.97896 5.11785 2.44444 6.41667 2.44444 7.94444C2.44444 9.47222 2.97896 10.771 4.048 11.8409C5.11785 12.9099 6.41667 13.4444 7.94444 13.4444Z" fill="#FF9F25"/>
</svg>
